<svg version="1.0" xmlns="http://www.w3.org/2000/svg" width="150.000000pt" height="154.000000pt" viewBox="0 0 150.000000 154.000000" preserveAspectRatio="xMidYMid meet" style="width: 264.422px; height: auto;"> <g transform="translate(0.000000,154.000000) scale(0.100000,-0.100000)" fill="#000000" stroke="none"> <path d="M780 1403 c0 -7 -3 -12 -7 -11 -18 5 -52 -15 -58 -33 -4 -10 -11 -19 -16 -19 -5 0 -9 -5 -9 -11 0 -5 5 -7 10 -4 6 3 10 -1 10 -10 0 -9 -4 -13 -10 -10 -6 4 -10 -32 -10 -99 0 -64 4 -106 10 -106 6 0 10 -10 9 -22 0 -13 -3 -17 -6 -10 -2 6 -9 10 -13 7 -5 -3 -7 -12 -4 -20 4 -8 10 -12 15 -9 5 3 9 1 9 -5 0 -5 -6 -12 -12 -14 -10 -4 -10 -6 0 -6 6 -1 12 -11 11 -23 0 -22 -1 -22 -9 -3 -7 19 -8 18 -15 -7 -7 -26 -7 -26 -26 -7 -22 22 -55 18 -76 -8 -16 -21 -21 -7 -22 71 -1 70 -5 85 -18 72 -11 -11 -14 -692 -4 -719 8 -20 9 -19 15 13 4 19 6 63 4 97 -3 62 7 83 27 56 7 -9 10 32 11 136 0 82 -3 148 -6 146 -9 -5 -2 52 12 98 8 27 17 37 32 37 42 0 49 -32 47 -213 -1 -93 -4 -174 -7 -178 -3 -5 0 -9 5 -9 7 0 12 -27 12 -67 1 -56 3 -62 9 -33 10 50 11 35 10 -142 -1 -145 0 -158 19 -177 14 -14 27 -18 38 -13 15 6 13 8 -9 10 l-26 3 2 602 2 602 36 3 c35 3 37 1 42 -30 3 -18 5 -295 3 -614 -2 -462 1 -580 11 -577 12 5 15 50 12 158 -1 28 6 66 14 85 8 19 16 31 16 25 0 -5 4 -3 9 5 5 8 6 31 3 50 l-6 35 -7 -30 c-5 -24 -7 -18 -8 27 -1 36 3 58 12 62 10 5 10 7 0 12 -15 7 -17 54 -3 54 6 0 10 7 10 15 0 8 -3 15 -7 15 -9 0 -7 255 2 269 3 5 1 12 -4 16 -6 3 -8 40 -7 83 2 45 -1 92 -9 114 -7 23 -11 70 -8 123 3 66 0 89 -11 100 -8 8 -18 15 -22 15 -4 0 -13 8 -20 18 -8 10 -13 12 -14 5z" class=""></path> <path d="M894 1187 c-3 -9 -9 -15 -13 -13 -4 3 -7 -4 -7 -15 0 -12 4 -15 10 -9 6 6 23 10 38 10 l28 0 0 -93 c0 -61 4 -97 12 -105 10 -10 10 -15 2 -20 -18 -11 -19 -236 -2 -226 10 5 11 4 1 -7 -16 -17 -17 -69 -1 -69 9 0 9 -3 0 -12 -15 -15 -16 -48 -1 -48 9 0 8 -4 0 -14 -13 -16 -11 -170 3 -156 5 5 8 36 7 70 -2 49 1 59 13 54 31 -12 37 31 34 251 l-3 215 37 0 c29 0 36 3 32 15 -7 18 -92 14 -105 -6 -7 -11 -9 -11 -9 3 0 9 5 20 10 23 11 7 14 76 3 73 -5 -2 -8 2 -8 7 0 6 3 9 8 8 13 -5 7 7 -19 37 -15 16 -31 27 -37 23 -5 -3 -13 1 -18 8 -6 11 -9 10 -15 -4z m73 -439 c-3 -8 -6 -5 -6 6 -1 11 2 17 5 13 3 -3 4 -12 1 -19z" class=""></path> <path d="M468 1143 c6 -2 10 -8 8 -12 -3 -3 7 -6 22 -5 43 1 39 24 -5 23 -21 0 -32 -3 -25 -6z"></path> <path d="M438 1123 c-14 -4 -16 -17 -13 -94 1 -49 -1 -89 -5 -89 -3 0 -17 11 -30 25 -27 29 -36 31 -57 10 -8 -8 -18 -13 -23 -10 -13 8 -42 -65 -37 -94 7 -33 -6 -57 -24 -45 -11 6 -11 4 0 -10 14 -17 22 -126 10 -126 -4 0 -9 -9 -12 -20 -6 -24 -3 -25 16 -6 11 12 15 11 25 -5 9 -13 9 -20 0 -25 -6 -4 -8 -3 -4 4 3 6 2 13 -4 17 -16 10 -11 -22 6 -40 9 -8 14 -22 11 -29 -3 -8 1 -17 9 -20 26 -10 92 -7 99 5 5 7 -3 10 -21 8 -73 -6 -69 -14 -69 139 0 98 -4 143 -13 154 -13 16 -7 48 9 48 5 0 9 7 9 15 0 9 9 15 21 15 15 0 19 5 15 15 -12 32 10 12 27 -24 22 -47 26 -301 5 -301 -9 0 -8 -4 2 -10 11 -7 12 -10 2 -10 -10 0 -9 -4 2 -16 28 -27 33 -47 32 -121 -1 -40 2 -73 5 -73 3 0 11 -12 17 -26 7 -14 17 -22 22 -19 6 3 10 1 10 -6 0 -7 2 -10 5 -7 9 9 -6 38 -20 38 -18 0 -21 108 -15 460 3 151 5 275 5 276 0 0 -7 -1 -17 -3z"></path> <path d="M1111 1008 c-1 -10 -6 -18 -12 -18 -5 0 -8 -4 -4 -10 3 -5 6 -103 6 -218 1 -210 6 -249 31 -224 10 10 10 15 1 20 -14 9 -11 40 4 50 5 4 10 14 11 22 0 8 3 34 6 58 2 23 2 42 -2 42 -12 0 -5 165 7 166 6 1 20 2 31 3 13 1 20 8 20 21 0 14 -5 18 -16 13 -13 -5 -13 -7 -2 -14 10 -6 8 -9 -7 -9 -11 0 -30 -3 -42 -6 -17 -5 -21 -2 -17 13 2 10 0 38 -5 63 -5 25 -9 37 -10 28z" class=""></path> <path d="M1232 898 c1 -13 1 -85 0 -161 -2 -104 -5 -137 -14 -136 -31 4 -59 -2 -53 -11 6 -10 34 -8 67 5 24 10 29 50 26 194 -2 85 -7 126 -15 128 -7 3 -11 -5 -11 -19z"></path> <path d="M176 854 c-3 -9 -4 -19 -1 -22 3 -3 5 0 5 7 0 8 9 11 28 7 15 -3 34 -2 42 4 12 8 12 10 -5 10 -11 0 -30 3 -41 6 -15 4 -23 0 -28 -12z"></path> <path d="M1320 861 c0 -6 14 -14 31 -18 18 -3 26 -9 19 -13 -8 -5 -8 -9 3 -13 16 -6 20 -57 5 -57 -6 0 -5 -6 2 -15 6 -8 9 -18 6 -23 -3 -5 1 -18 9 -28 13 -17 14 -12 15 52 0 57 -4 74 -20 92 -12 12 -25 22 -30 22 -4 0 -15 3 -24 6 -9 3 -16 1 -16 -5z"></path> <path d="M1291 851 c-18 -12 -22 -126 -5 -166 7 -16 14 -25 14 -20 2 17 7 195 6 195 -1 0 -7 -4 -15 -9z"></path> <path d="M151 757 c-1 -40 3 -79 9 -87 5 -8 10 -11 10 -6 0 5 9 -1 19 -13 11 -13 25 -20 30 -16 18 10 12 25 -9 25 -11 0 -20 7 -20 15 0 8 -6 14 -12 13 -10 -2 -12 15 -10 64 1 36 -1 69 -6 72 -5 3 -10 -27 -11 -67z"></path> <path d="M1343 666 c-17 -10 -20 -15 -11 -24 9 -9 16 -8 30 5 33 30 22 41 -19 19z"></path> <path d="M635 540 c3 -5 10 -10 16 -10 5 0 9 5 9 10 0 6 -7 10 -16 10 -8 0 -12 -4 -9 -10z"></path> <path d="M1007 534 c-11 -11 3 -24 24 -24 11 0 18 -4 15 -9 -4 -5 7 -4 24 2 39 15 39 31 0 22 -18 -4 -36 -2 -44 4 -7 6 -16 8 -19 5z"></path> <path d="M982 423 c0 -33 1 -35 10 -17 6 14 7 28 1 39 -8 13 -10 8 -11 -22z"></path> <path d="M932 373 c-16 -3 -22 -9 -18 -20 3 -8 6 -17 6 -19 0 -2 5 -4 11 -4 5 0 8 4 5 9 -3 5 3 11 14 14 18 5 30 29 13 26 -5 -1 -18 -4 -31 -6z"></path> <path d="M500 359 c0 -5 5 -7 10 -4 6 3 10 8 10 11 0 2 -4 4 -10 4 -5 0 -10 -5 -10 -11z"></path> <path d="M875 360 c3 -5 8 -10 11 -10 2 0 4 5 4 10 0 6 -5 10 -11 10 -5 0 -7 -4 -4 -10z"></path>  </g> </svg>